# xmcd
#
# Track frame offsets:
#	202
#	11157
#	31360
#	50515
#	68790
#	89412
#	113190
#	134305
#
# Disc length: 1991 seconds
#
# Revision: 0
# Processed by: cddbd v1.4PL0 Copyright (c) Steve Scherf et al.
# Submitted via: dBpowerAMP V4.0
#
DISCID=6a07c508
DTITLE=Red Mike Selection - Ner på stationen
DYEAR=1997
DGENRE=
TTITLE0=Kämpa för livet
TTITLE1=Graveyard
TTITLE2=Ekorrhjulet
TTITLE3=Moon of my life
TTITLE4=Ner på stationen
TTITLE5=Öreblues
TTITLE6=Wild Garden
TTITLE7=Se på dig
EXTD=
EXTT0=
EXTT1=
EXTT2=
EXTT3=
EXTT4=
EXTT5=
EXTT6=
EXTT7=
PLAYORDER=
